<svg width="61" height="51" fill="none" xmlns="http://www.w3.org/2000/svg"><path d="M35.547 27.538a2.658 2.658 0 01-.327.012h-6.245V29h6.354c.049 0 .424 0 .496-.012 1.295-.12 1.889-1.197 1.889-2.14 0-.968-.618-2.008-1.792-2.117-.23-.024-.423-.024-.508-.024h-4.152c-.181 0-.387-.012-.46-.036-.326-.085-.447-.375-.447-.617a.62.62 0 01.46-.605 1.73 1.73 0 01.435-.036h5.992v-1.427h-6.088a4.04 4.04 0 00-.606.036c-1.04.145-1.767.98-1.767 2.044 0 .87.545 1.886 1.743 2.056.218.024.52.024.654.024h4.042c.073 0 .254 0 .29.012.46.06.618.4.618.702 0 .29-.182.604-.581.677zm-11.837 0a2.553 2.553 0 01-.315.012h-6.257V29h6.354c.049 0 .424 0 .496-.012 1.296-.12 1.889-1.197 1.889-2.14 0-.968-.618-2.008-1.792-2.117-.23-.024-.423-.024-.508-.024h-4.151c-.182 0-.388-.012-.46-.036-.327-.085-.448-.375-.448-.617a.62.62 0 01.46-.605c.097-.024.205-.036.435-.036h5.992v-1.427h-6.088a4.04 4.04 0 00-.605.036c-1.041.145-1.768.98-1.768 2.044 0 .87.545 1.886 1.743 2.056.218.024.52.024.654.024h4.042c.073 0 .255 0 .29.012.46.06.618.4.618.702 0 .29-.17.604-.58.677zm-9.828-5.6H12.31v7.1h1.573v-7.1zm-5.047 7.1v-7.1H7.262v5.297l-5.24-5.297H0v7.1h1.573v-5.322l5.277 5.322h1.985zm50.604-7.1v5.297l-5.241-5.297h-2.021v7.1h1.573v-5.322l5.265 5.322H61v-7.1h-1.561zm-15.456 0l-4.43 7.1h1.913l.786-1.27h5.168l.787 1.27h1.9l-4.43-7.1h-1.694zm2.626 4.487h-3.546l1.78-2.854 1.766 2.854zM8.75 17.911C11.923 8.66 20.66 2.443 30.513 2.443s18.603 6.216 21.762 15.468l.024.073h6.935v-.835l-2.88-.338c-1.78-.206-2.155-.992-2.64-1.984l-.12-.242C49.429 5.733 40.364 0 30.513 0 20.647 0 11.594 5.733 7.43 14.61l-.12.241c-.485.992-.86 1.778-2.64 1.984l-2.88.338v.835h6.923l.037-.097zm43.548 15.093l-.024.073c-3.171 9.252-11.91 15.456-21.762 15.456S11.91 42.317 8.751 33.065l-.025-.073H1.803v.835l2.88.338c1.78.206 2.155.992 2.64 1.984l.12.242C11.607 45.268 20.673 51 30.524 51c9.852 0 18.917-5.733 23.081-14.597l.121-.242c.484-.992.86-1.778 2.639-1.984l2.88-.338v-.835h-6.947z" fill="#000"/></svg>