<svg width="61" height="51" viewBox="0 0 61 51" fill="none" xmlns="http://www.w3.org/2000/svg">
<path d="M35.547 27.5378C35.4986 27.5499 35.305 27.5499 35.2202 27.5499H28.975V29.0012H35.3292C35.3776 29.0012 35.7528 29.0012 35.8254 28.9891C37.1204 28.8682 37.7135 27.7918 37.7135 26.8485C37.7135 25.881 37.0962 24.8409 35.9222 24.732C35.6923 24.7078 35.4986 24.7078 35.4139 24.7078H31.2625C31.081 24.7078 30.8752 24.6958 30.8026 24.6716C30.4758 24.5869 30.3548 24.2967 30.3548 24.0548C30.3548 23.8371 30.4758 23.5468 30.8147 23.4501C30.9115 23.4259 31.0204 23.4138 31.2504 23.4138H37.2415V21.9867H31.1536C30.8994 21.9867 30.7058 21.9988 30.5484 22.023C29.5075 22.1681 28.7813 23.0026 28.7813 24.0669C28.7813 24.9376 29.326 25.9535 30.5242 26.1228C30.7421 26.147 31.0446 26.147 31.1778 26.147H35.2202C35.2929 26.147 35.4744 26.147 35.5107 26.1591C35.9706 26.2196 36.128 26.5582 36.128 26.8606C36.128 27.1508 35.9464 27.4653 35.547 27.5378Z" fill="black"/>
<path d="M23.7101 27.5378C23.6617 27.5499 23.4681 27.5499 23.3954 27.5499H17.1381V29.0012H23.4923C23.5407 29.0012 23.9159 29.0012 23.9885 28.9891C25.2835 28.8682 25.8766 27.7918 25.8766 26.8485C25.8766 25.881 25.2593 24.8409 24.0853 24.732C23.8554 24.7078 23.6617 24.7078 23.577 24.7078H19.4256C19.244 24.7078 19.0383 24.6958 18.9657 24.6716C18.6389 24.5869 18.5179 24.2967 18.5179 24.0548C18.5179 23.8371 18.6389 23.5468 18.9778 23.4501C19.0746 23.4259 19.1835 23.4138 19.4135 23.4138H25.4046V21.9867H19.3167C19.0625 21.9867 18.8689 21.9988 18.7115 22.023C17.6706 22.1681 16.9444 23.0026 16.9444 24.0669C16.9444 24.9376 17.4891 25.9535 18.6873 26.1228C18.9052 26.147 19.2077 26.147 19.3409 26.147H23.3833C23.456 26.147 23.6375 26.147 23.6738 26.1591C24.1337 26.2196 24.2911 26.5582 24.2911 26.8606C24.2911 27.1508 24.1216 27.4653 23.7101 27.5378Z" fill="black"/>
<path d="M13.8823 21.9383H12.3089V29.0375H13.8823V21.9383Z" fill="black"/>
<path d="M8.83532 29.0375V21.9383H7.2619V27.2355L2.02123 21.9383H0V29.0375H1.57341V23.7161L6.8504 29.0375H8.83532Z" fill="black"/>
<path d="M59.4387 21.9383V27.2355L54.198 21.9383H52.1768V29.0375H53.7502V23.7161L59.0151 29.0375H61V21.9383H59.4387Z" fill="black"/>
<path d="M43.9829 21.9383L39.5532 29.0375H41.4655L42.2522 27.7676H47.4202L48.2069 29.0375H50.1071L45.6774 21.9383H43.9829ZM46.6093 26.4252H43.0631L44.8423 23.571L46.6093 26.4252Z" fill="black"/>
<path d="M8.7506 17.9111C11.9216 8.65924 20.6601 2.44297 30.5121 2.44297C40.3641 2.44297 49.1147 8.65924 52.2736 17.9111L52.2978 17.9836H59.2329V17.1492L56.3524 16.8105C54.5732 16.6049 54.198 15.8188 53.7139 14.8271L53.5929 14.5852C49.4294 5.73251 40.3641 0 30.5121 0C20.648 0 11.5948 5.73251 7.43135 14.6094L7.31032 14.8513C6.82619 15.843 6.45099 16.6291 4.67183 16.8347L1.79127 17.1733V18.0078H8.71429L8.7506 17.9111Z" fill="black"/>
<path d="M52.2978 33.0043L52.2736 33.0768C49.1026 42.3287 40.3641 48.5328 30.5121 48.5328C20.6601 48.5328 11.9095 42.3166 8.7506 33.0647L8.72639 32.9922H1.80337V33.8267L4.68393 34.1653C6.4631 34.3709 6.83829 35.157 7.32242 36.1487L7.44345 36.3906C11.6069 45.2675 20.6722 51 30.5242 51C40.3762 51 49.4415 45.2675 53.605 36.4027L53.726 36.1608C54.2101 35.1691 54.5853 34.383 56.3645 34.1774L59.245 33.8387V33.0043H52.2978Z" fill="black"/>
</svg>
